<?xml version="1.0" standalone="no"?>
<!DOCTYPE svg PUBLIC "-//W3C//DTD SVG 20010904//EN"
 "http://www.w3.org/TR/2001/REC-SVG-20010904/DTD/svg10.dtd">
<svg version="1.0" xmlns="http://www.w3.org/2000/svg"
 width="1024.000000pt" height="1024.000000pt" viewBox="0 0 1024.000000 1024.000000"
 preserveAspectRatio="xMidYMid meet">

<g transform="translate(0.000000,1024.000000) scale(0.100000,-0.100000)"
fill="#000000" stroke="none">
<path d="M0 5120 l0 -5120 5120 0 5120 0 0 5120 0 5120 -5120 0 -5120 0 0
-5120z m5340 3385 c-31 -236 -138 -509 -290 -740 -144 -218 -271 -357 -418
-456 -161 -109 -266 -193 -245 -198 88 -18 522 165 668 283 163 131 255 212
291 258 21 26 40 45 43 43 2 -3 -12 -38 -32 -79 -40 -79 -168 -251 -177 -236
-3 5 -43 -15 -88 -45 -95 -62 -225 -126 -308 -150 -50 -14 -114 -59 -101 -71
2 -3 29 4 58 15 30 10 78 26 107 35 89 28 219 93 262 132 22 20 40 32 40 26 0
-13 -72 -77 -107 -95 -33 -18 -197 -82 -233 -91 -14 -4 -95 -32 -180 -62 -150
-53 -200 -77 -187 -90 9 -9 231 -5 311 6 185 26 383 64 505 96 73 19 136 33
138 30 7 -7 -76 -65 -117 -82 -83 -36 -240 -65 -423 -79 -104 -7 -194 -18
-200 -23 -7 -6 -21 -12 -32 -14 -16 -4 -13 -7 15 -16 29 -9 17 -10 -61 -5 -61
4 -108 1 -131 -6 l-35 -11 5 -54 c4 -51 3 -55 -34 -91 -58 -56 -215 -119 -418
-166 -172 -41 -385 -103 -478 -140 -90 -35 -191 -69 -207 -69 -38 0 -164 45
-187 67 -24 22 -26 30 -21 78 3 29 14 73 25 98 19 42 24 46 98 72 309 110 394
176 464 359 17 43 39 91 50 106 24 34 128 79 291 126 167 48 318 109 412 166
45 28 98 60 117 71 95 56 356 292 461 417 64 77 188 260 224 330 26 52 85 237
106 335 l13 60 7 -40 c3 -21 3 -66 -1 -100z m-522 -40 c-4 -98 -9 -124 -48
-239 -24 -70 -46 -123 -48 -116 -3 7 -23 -23 -47 -66 -67 -126 -196 -329 -245
-387 -76 -91 -191 -173 -310 -221 -33 -14 -60 -23 -60 -21 0 2 28 25 63 51
233 177 365 340 508 623 77 154 141 331 158 441 24 147 36 119 29 -65z m332
-25 c0 -15 -43 -100 -97 -192 -40 -69 -49 -78 -74 -78 -34 0 -35 4 -13 112 9
43 14 97 12 118 l-3 39 45 4 c96 7 130 7 130 -3z m-520 -3 c0 -2 -7 -28 -16
-58 -22 -74 -91 -205 -117 -222 -12 -8 -76 -29 -142 -47 -247 -68 -539 -193
-740 -318 -276 -171 -563 -450 -754 -731 -133 -197 -226 -389 -309 -641 -74
-222 -95 -334 -122 -640 -13 -149 -18 -184 -19 -130 -1 43 -5 70 -9 62 -5 -7
-16 -10 -25 -6 -9 3 -17 2 -17 -4 0 -6 -13 -4 -30 5 -24 11 -34 12 -45 3 -16
-14 -35 -5 -35 16 0 8 -10 14 -24 14 -22 0 -26 -6 -31 -47 -10 -79 -13 -81
-14 -12 -3 177 37 495 89 698 120 472 375 915 735 1276 412 413 923 674 1510
770 87 14 115 17 115 12z m1079 -77 c246 -61 344 -97 576 -210 183 -89 372
-208 514 -322 96 -78 285 -267 377 -378 204 -244 398 -600 504 -920 102 -307
147 -672 124 -995 -8 -116 -9 -118 -15 -55 -3 36 -6 53 -7 38 -2 -30 -27 -32
-47 -5 -7 9 -18 17 -26 17 -10 -1 -8 -5 5 -15 22 -16 21 -17 -14 -34 -23 -11
-24 -11 -6 3 16 13 17 17 3 30 -13 14 -17 14 -27 1 -13 -15 -59 -11 -71 7 -7
11 -25 -10 -32 -37 -2 -11 -5 66 -6 170 -2 432 -72 726 -260 1104 -231 463
-578 830 -1021 1081 -217 122 -520 233 -755 277 l-100 18 3 40 c4 52 32 217
38 227 9 14 36 9 243 -42z m-998 -301 c-5 -13 -10 -19 -10 -12 -1 15 10 45 15
40 3 -2 0 -15 -5 -28z m652 -216 c53 -8 46 -23 -10 -23 -63 0 -93 9 -93 27 0
12 7 14 33 9 17 -4 49 -9 70 -13z m323 -22 c23 -10 104 -38 180 -61 303 -90
503 -218 764 -486 161 -165 221 -238 326 -394 180 -267 285 -518 349 -835 48
-240 55 -411 30 -780 -8 -121 -15 -240 -16 -265 -1 -25 -9 45 -19 155 -10 110
-30 254 -45 320 -14 66 -31 145 -37 175 -116 586 -258 948 -496 1265 -112 150
-418 468 -556 578 -83 67 -201 140 -316 197 -52 25 -50 24 90 -97 179 -154
374 -381 440 -513 34 -69 104 -284 135 -415 46 -196 57 -442 30 -630 -18 -124
-71 -326 -90 -341 -7 -5 -28 -41 -45 -80 -18 -38 -48 -91 -69 -119 -30 -41
-213 -249 -269 -305 -17 -17 25 58 81 145 90 140 186 373 236 575 40 157 46
221 45 460 0 231 -1 237 -33 365 -34 136 -86 285 -128 370 -100 200 -288 415
-538 617 -38 31 -83 70 -99 87 -26 27 -27 31 -10 31 10 0 38 -9 60 -19z
m-1366 -45 c0 -6 -126 -96 -133 -96 -4 0 -30 -11 -59 -24 -29 -13 -83 -34
-120 -46 -82 -26 -362 -168 -482 -243 -49 -31 -92 -54 -97 -51 -5 3 -9 0 -9
-5 0 -6 -6 -11 -14 -11 -8 0 -22 -7 -31 -16 -9 -9 -18 -14 -21 -12 -4 5 66 67
141 124 96 73 413 247 558 306 109 44 267 88 267 74z m1151 -322 c68 -21 157
-65 198 -100 l32 -27 -6 -76 c-8 -84 -28 -140 -69 -188 -32 -37 -43 -40 -62
-15 -19 25 -17 45 11 93 33 59 33 96 -1 109 -14 6 -70 10 -124 10 -54 0 -110
-4 -124 -10 -33 -12 -34 4 -5 63 23 45 89 157 93 157 1 0 27 -7 57 -16z m442
-307 c55 -65 174 -245 188 -286 35 -99 -94 -209 -273 -236 -34 -5 -48 -4 -48
4 0 7 6 9 13 6 6 -4 4 0 -7 9 -10 8 -15 19 -12 24 3 6 1 23 -5 39 -7 15 -13
37 -14 47 -1 10 -10 25 -20 32 -11 8 -16 14 -12 14 4 0 -2 10 -13 22 -11 12
-24 36 -29 53 -6 25 -12 30 -35 28 -26 -2 -23 2 37 67 62 65 107 149 107 199
0 10 3 32 6 49 l6 31 34 -25 c18 -14 53 -49 77 -77z m-708 -187 c-16 -11 -34
-20 -40 -20 -5 0 4 9 20 20 17 11 35 20 40 20 6 0 -3 -9 -20 -20z m1457 -202
c126 -249 219 -527 248 -738 6 -47 25 -168 42 -270 29 -180 31 -206 15 -352
-2 -23 -8 -17 -78 72 -82 106 -133 140 -213 140 l-60 0 27 28 c64 67 99 236
99 482 0 211 -37 382 -142 659 -28 71 -50 138 -50 147 0 37 36 -17 112 -168z
m-496 -125 c14 -59 19 -256 8 -311 -5 -26 -13 -33 -50 -43 -24 -8 -44 -19 -44
-25 0 -6 -6 -17 -14 -23 -7 -6 -16 -26 -20 -43 -3 -17 -14 -40 -23 -50 -52
-58 -293 27 -437 154 -34 30 -38 36 -27 55 6 12 11 49 11 82 l0 60 98 -6 c111
-6 185 8 291 57 71 34 150 95 171 134 7 14 15 24 18 21 2 -2 11 -30 18 -62z
m-1283 -235 c-27 -47 -187 -212 -257 -264 -33 -26 -91 -62 -128 -80 -38 -19
-68 -38 -68 -44 0 -5 -36 -21 -81 -35 -67 -21 -99 -25 -197 -25 -220 0 -454
31 -697 91 -171 43 -293 105 -369 189 -31 35 -50 79 -28 67 4 -2 46 -28 94
-56 192 -115 403 -169 678 -175 91 -2 205 -9 255 -16 159 -22 262 -2 396 79
110 67 373 254 398 284 22 27 24 20 4 -15z m742 -274 c74 -58 144 -90 230
-105 l65 -12 -19 -21 c-10 -12 -27 -37 -36 -56 -21 -41 -114 -141 -168 -181
-48 -35 -65 -30 -147 42 -61 53 -124 137 -154 205 l-18 41 36 39 c20 21 51 60
69 85 l32 47 25 -19 c14 -10 52 -40 85 -65z m-326 -187 c37 -65 135 -198 175
-236 42 -41 45 -62 11 -89 -32 -25 -165 -94 -233 -121 l-52 -21 -41 37 c-22
20 -51 55 -64 77 -29 50 -80 181 -89 228 -6 34 -6 34 46 53 65 22 155 68 188
94 14 11 27 21 30 21 3 0 16 -19 29 -43z m-1984 -152 c28 -1 55 3 62 8 8 6 11
-4 10 -37 l-2 -45 -45 25 c-25 14 -65 35 -90 45 -27 12 -33 17 -15 12 17 -4
53 -8 80 -8z m1589 -38 c12 -28 33 -81 44 -117 12 -36 44 -101 70 -145 l49
-79 -36 -20 c-45 -24 -241 -75 -344 -89 l-77 -11 -30 29 c-16 15 -43 62 -60
102 -26 61 -32 94 -37 178 l-6 104 39 6 c66 11 303 73 322 84 31 19 42 12 66
-42z m-1716 -74 c18 -4 21 -8 10 -15 -9 -6 -6 -7 9 -3 22 6 154 -53 168 -75 4
-6 8 -52 10 -103 2 -51 11 -114 19 -142 9 -27 16 -50 16 -50 0 0 -46 -1 -103
-1 -73 -1 -120 -7 -166 -22 -56 -18 -65 -19 -78 -6 -9 8 -13 24 -10 34 3 11 1
18 -3 15 -13 -8 -17 181 -6 263 7 50 14 72 23 72 8 0 12 3 10 8 -3 4 14 6 36
6 53 -2 71 9 32 17 -18 4 -22 7 -10 8 11 0 31 -2 43 -6z m1212 -273 c7 -24 25
-71 42 -104 28 -55 29 -58 9 -53 -13 3 -24 -1 -29 -9 -8 -14 -37 -20 -128 -26
-19 -1 -34 -6 -34 -10 0 -4 -11 -8 -25 -8 -14 0 -25 -4 -25 -10 0 -5 -12 -13
-26 -16 -15 -4 -23 -12 -20 -19 3 -8 -2 -16 -10 -19 -19 -7 -45 4 -37 17 3 6
1 7 -5 3 -9 -5 -9 -13 0 -29 10 -20 10 -21 -7 -7 -21 18 -67 21 -77 6 -5 -7
-8 -4 -8 7 0 9 -3 16 -7 16 -31 -5 -74 4 -91 19 -17 13 -22 33 -26 88 l-5 71
82 80 c110 106 138 126 280 198 l122 63 6 -107 c4 -58 12 -126 19 -151z m1257
144 c-3 -3 -12 -4 -19 -1 -8 3 -5 6 6 6 11 1 17 -2 13 -5z m1900 -141 c-3 -10
-5 -4 -5 12 0 17 2 24 5 18 2 -7 2 -21 0 -30z m-2017 -13 c-8 -6 -50 -28 -93
-50 -83 -44 -92 -44 -135 3 -21 23 -22 25 -5 31 10 4 19 2 21 -4 15 -44 50
-43 154 5 54 25 85 32 58 15z m1049 -47 c1 5 8 2 16 -6 7 -8 36 -18 62 -22 54
-8 83 -21 83 -36 0 -6 27 -42 60 -81 33 -39 59 -72 57 -74 -1 -1 -42 9 -92 22
-64 16 -119 23 -192 23 l-102 1 36 88 c44 106 54 121 64 95 4 -10 8 -14 8 -10z
m439 -63 l1 -35 -19 40 c-20 44 -26 80 -10 70 6 -3 11 0 11 7 2 23 17 -46 17
-82z m-1918 -10 c-19 -11 -44 -19 -55 -19 -13 0 -7 7 20 20 52 24 80 24 35 -1z
m55 -50 c-3 -5 -14 -10 -23 -10 -15 0 -15 2 -2 10 20 13 33 13 25 0z m-1682
-119 c26 -81 62 -157 97 -201 l30 -38 -103 -50 c-66 -32 -124 -70 -163 -105
l-61 -56 -30 19 c-34 21 -65 59 -57 72 3 4 0 8 -6 8 -6 0 -8 5 -5 10 3 6 1 10
-4 10 -6 0 -11 7 -11 15 0 9 -7 29 -15 45 -10 20 -12 30 -4 30 6 0 9 5 7 11
-2 6 -8 10 -13 10 -13 0 -34 39 -35 64 0 11 -7 33 -15 49 -9 16 -14 45 -13 63
2 29 8 38 40 54 64 33 139 48 243 48 l100 1 18 -59z m1522 44 c-16 -8 -36 -14
-43 -15 -7 0 -35 -11 -62 -25 -27 -14 -55 -25 -62 -25 -19 0 3 16 42 30 117
42 136 49 145 48 6 0 -3 -6 -20 -13z m1010 -44 c-3 -6 -11 -11 -17 -11 -6 0
-6 6 2 15 14 17 26 13 15 -4z m717 -75 c53 -13 109 -31 125 -40 l28 -16 -42 6
-41 6 -28 -53 c-32 -64 -65 -158 -59 -168 5 -9 -14 -63 -36 -107 l-16 -32 40
6 c29 4 38 2 33 -6 -4 -7 -19 -12 -34 -12 -21 0 -24 -2 -12 -10 13 -9 7 -14
-12 -11 -4 0 -5 -6 -2 -13 6 -16 -23 -28 -73 -31 -25 -2 -46 8 -85 37 -75 57
-238 135 -298 143 -27 4 -50 10 -50 14 0 4 23 29 51 56 62 62 160 189 179 234
l14 34 110 -6 c68 -3 149 -15 208 -31z m-3953 -71 c-1 -29 -1 -29 -9 -5 -4 14
-8 34 -9 45 -1 16 1 17 9 5 5 -8 9 -28 9 -45z m2894 -13 c47 -21 121 -82 138
-114 8 -14 0 -11 -31 11 -60 43 -133 65 -220 65 -97 1 -172 -23 -257 -80 -118
-80 -137 -68 -38 25 69 64 120 95 182 111 57 14 175 5 226 -18z m-1263 -76 c0
-3 -6 -11 -14 -19 -12 -12 -13 -18 -1 -41 8 -14 9 -26 4 -26 -5 0 -15 11 -21
25 -9 21 -8 28 7 45 18 20 25 24 25 16z m-679 -166 c49 -58 116 -119 209 -190
l33 -25 -35 -86 c-19 -47 -56 -118 -82 -158 -48 -75 -48 -75 -101 -56 -11 3
-6 -2 10 -11 19 -11 25 -19 16 -22 -16 -5 -92 47 -99 68 -4 12 -1 11 15 -2 11
-10 28 -18 38 -18 17 0 17 2 -3 23 -12 13 -22 30 -22 39 0 9 -7 21 -15 28 -8
7 -15 18 -15 24 0 21 -64 73 -130 106 -55 28 -134 90 -114 90 4 0 -3 9 -15 19
-32 28 -21 50 58 115 69 56 180 128 191 124 4 -2 31 -32 61 -68z m2460 -100
c36 -10 183 -96 232 -136 19 -15 25 -29 23 -54 -3 -36 -40 -75 -63 -66 -7 3
-13 1 -13 -3 0 -5 6 -12 13 -14 7 -3 5 -6 -5 -6 -10 -1 -18 -6 -18 -12 0 -5
-4 -7 -10 -4 -5 3 -10 0 -10 -7 0 -9 -3 -9 -10 2 -5 8 -10 10 -10 4 0 -5 -7
-19 -16 -30 -8 -10 -12 -12 -8 -4 6 11 2 10 -13 -2 -11 -10 -28 -18 -38 -18
-15 0 -16 -2 -4 -17 7 -10 9 -15 5 -11 -12 10 -86 -32 -86 -49 0 -7 -3 -13 -7
-13 -7 0 -20 -10 -89 -70 -21 -18 -22 -17 -65 49 -74 111 -179 200 -277 233
l-43 15 103 50 c57 28 144 78 193 111 97 66 134 75 216 52z m-2081 -190 c15
-11 79 -44 143 -75 122 -59 183 -110 215 -183 22 -49 21 -212 -2 -262 -15 -34
-15 -34 -10 -5 5 24 3 27 -6 15 -10 -13 -11 -12 -6 3 3 10 3 29 0 43 -6 22
-11 24 -60 24 -30 0 -82 9 -116 21 -90 30 -234 105 -253 131 -12 18 -17 20
-24 10 -6 -10 -10 -8 -14 8 -3 13 11 61 38 125 24 57 46 117 50 134 8 37 9 37
45 11z m-974 -26 c-3 -9 -6 -30 -7 -47 l-1 -32 -10 30 c-6 17 -16 37 -22 45
-10 13 -9 13 7 1 15 -12 17 -11 17 3 0 9 5 16 11 16 6 0 8 -7 5 -16z m2538
-130 c70 -34 156 -118 185 -180 24 -51 27 -66 7 -39 -13 18 -15 18 -39 2 -14
-9 -45 -18 -69 -19 -24 -2 -46 -7 -49 -11 -3 -5 -12 -9 -20 -11 -55 -10 -86
-21 -101 -35 -33 -31 -44 -37 -56 -33 -7 2 -18 0 -25 -5 -7 -5 -32 -15 -57
-22 -96 -27 -110 -37 -111 -78 -1 -31 -3 -26 -10 22 -11 74 -35 158 -59 205
-28 54 -98 140 -125 152 -36 16 -21 28 38 29 29 0 106 14 172 29 155 37 235
36 319 -6z m-1074 -14 c19 -6 104 -19 189 -31 132 -17 164 -25 215 -52 70 -37
129 -107 144 -171 16 -61 25 -143 15 -129 -6 8 -26 10 -58 7 -83 -9 -446 -10
-451 -2 -9 14 -26 8 -21 -6 3 -8 0 -19 -6 -24 -9 -8 -12 23 -12 131 0 127 -2
147 -23 192 -13 27 -33 60 -44 72 -21 22 -21 23 -2 23 10 0 35 -5 54 -10z
m-657 -157 c-18 -7 -16 -33 5 -56 17 -19 17 -20 -16 -3 -31 16 -32 17 -16 41
9 14 21 25 28 24 7 0 6 -2 -1 -6z m-223 -48 c0 -8 -58 -35 -77 -35 -16 0 -16
1 2 14 25 17 75 31 75 21z m2630 -33 c0 -4 -10 -13 -22 -21 -23 -14 -23 -14
-4 8 20 22 26 25 26 13z m-2230 -62 c31 -16 89 -38 130 -51 41 -13 68 -25 59
-27 -26 -5 -319 116 -319 133 0 5 62 -21 130 -55z m320 -10 c0 -5 -4 -10 -10
-10 -5 0 -10 5 -10 10 0 6 5 10 10 10 6 0 10 -4 10 -10z m1890 -61 c-25 -16
-58 -37 -75 -45 l-30 -15 30 26 c32 28 94 64 110 65 6 0 -10 -14 -35 -31z
m-1903 -24 c-4 -8 -12 -15 -19 -14 -10 0 -10 2 0 6 6 2 12 12 12 21 0 8 3 13
6 9 4 -3 4 -13 1 -22z m-467 -51 c0 -2 -9 0 -20 6 -11 6 -20 13 -20 16 0 2 9
0 20 -6 11 -6 20 -13 20 -16z m2250 2 c0 -2 -15 -13 -33 -24 -19 -11 -46 -27
-60 -37 -27 -17 -27 -17 -27 9 0 22 3 26 23 21 13 -3 34 3 52 15 28 19 45 25
45 16z m810 0 c0 -2 -8 -10 -17 -17 -16 -13 -17 -12 -4 4 13 16 21 21 21 13z
m-2352 -23 c-10 -2 -26 -2 -35 0 -10 3 -2 5 17 5 19 0 27 -2 18 -5z m65 -10
c-7 -2 -19 -2 -25 0 -7 3 -2 5 12 5 14 0 19 -2 13 -5z m2237 -18 c-7 -8 -17
-15 -22 -15 -11 0 14 29 26 30 5 0 3 -7 -4 -15z m-124 -110 c-38 -36 -72 -62
-75 -60 -3 3 6 13 20 22 13 10 44 36 69 60 25 23 47 42 50 42 3 0 -26 -29 -64
-64z m-2603 48 c-7 -2 -19 -2 -25 0 -7 3 -2 5 12 5 14 0 19 -2 13 -5z m1407
-43 c-25 -10 -54 -19 -65 -19 -11 0 3 9 30 19 66 24 93 24 35 0z m235 -9 c-6
-5 -23 -12 -40 -16 l-30 -6 30 15 c35 17 53 20 40 7z m-1635 -10 c0 -12 -56
-22 -77 -13 -13 5 -5 9 27 13 25 3 46 7 48 7 1 1 2 -2 2 -7z m875 -50 c-14
-28 -35 -49 -35 -36 0 7 42 65 47 65 2 0 -3 -13 -12 -29z m513 -31 c-37 -10
-85 -21 -105 -24 l-38 -6 35 16 c36 16 107 31 150 32 14 0 -5 -8 -42 -18z
m1106 5 c-10 -8 -23 -15 -28 -15 -6 0 -1 7 10 15 10 8 23 15 28 15 6 0 1 -7
-10 -15z m-1409 -75 c-42 -11 -97 -12 -91 -2 3 5 31 9 63 9 45 0 51 -1 28 -7z
m-27 -237 c-10 -2 -26 -2 -35 0 -10 3 -2 5 17 5 19 0 27 -2 18 -5z m727 -83
c-27 -12 -43 -12 -25 0 8 5 22 9 30 9 10 0 8 -3 -5 -9z m-2945 -620 c48 -105
67 -155 175 -459 65 -180 59 -178 90 -36 16 72 117 389 166 521 l20 52 107 4
c59 3 108 4 110 2 2 -1 -4 -16 -13 -33 -25 -50 -113 -284 -165 -441 -72 -219
-190 -530 -242 -638 l-20 -43 -23 63 c-13 35 -48 119 -78 188 -30 69 -76 186
-102 260 -27 74 -57 155 -68 180 l-20 45 -20 -45 c-11 -25 -49 -121 -85 -215
-35 -93 -79 -208 -97 -255 -18 -47 -46 -108 -63 -135 -17 -28 -34 -63 -38 -78
-9 -37 -17 -27 -44 58 -12 39 -71 201 -130 360 -59 160 -118 326 -130 370 -18
65 -61 174 -137 343 -3 8 5 12 28 12 19 0 70 3 114 6 l80 6 27 -78 c15 -44 48
-146 73 -229 26 -82 59 -190 75 -240 16 -49 31 -107 35 -129 3 -21 10 -35 14
-30 4 5 43 113 86 239 43 127 93 263 112 304 47 104 93 183 105 179 6 -2 32
-51 58 -108z m1115 18 c32 -46 94 -144 138 -218 44 -74 88 -143 97 -153 17
-18 18 -18 32 10 37 71 205 342 236 378 l33 40 117 11 c64 5 118 9 120 8 2 -1
-19 -35 -46 -76 -28 -40 -114 -174 -192 -298 -78 -124 -158 -241 -177 -261
l-35 -37 4 -231 3 -231 -82 0 c-45 0 -89 -3 -98 -6 -14 -6 -16 16 -14 239 l1
246 -35 43 c-19 24 -71 106 -115 183 -45 77 -121 201 -170 275 l-89 135 91 11
c50 6 98 12 107 13 9 0 40 -33 74 -81z m2558 -24 c65 -95 261 -404 286 -452
12 -23 15 -20 69 72 136 229 236 382 290 444 27 30 32 32 98 32 38 0 74 -4 79
-8 7 -4 8 -198 5 -562 l-5 -555 -99 -3 -99 -3 6 368 7 368 -33 -55 c-19 -30
-85 -132 -148 -225 -63 -94 -124 -190 -137 -213 l-23 -43 -57 88 c-32 48 -73
115 -91 148 -19 33 -66 109 -105 169 l-71 109 -3 -356 -2 -357 -80 0 c-57 0
-80 4 -80 13 0 8 -3 7 -10 -3 -5 -8 -13 -11 -17 -6 -4 4 -9 259 -9 566 l-1
559 71 3 c39 2 76 3 81 3 6 -1 41 -46 78 -101z m-938 70 c115 -29 207 -103
253 -203 22 -47 27 -70 27 -146 0 -81 -3 -97 -31 -155 -34 -70 -86 -128 -149
-168 -22 -13 -41 -26 -43 -27 -6 -5 28 -65 88 -160 31 -49 71 -115 88 -146 28
-52 29 -57 13 -62 -10 -2 -26 0 -37 6 -13 7 -19 7 -22 -1 -2 -7 -22 -13 -45
-14 -23 -1 3 -5 58 -8 l100 -6 -117 -2 -117 -2 -34 63 c-19 34 -64 113 -100
176 -36 62 -67 117 -69 123 -2 5 -50 6 -115 2 l-113 -7 -2 -171 c-3 -150 -5
-167 -15 -136 -11 30 -12 31 -9 7 2 -18 -2 -31 -13 -37 -14 -8 -13 -10 4 -11
11 -1 -18 -5 -65 -9 -47 -4 -86 -6 -87 -5 -1 0 -3 252 -5 558 l-3 557 250 0
c194 0 264 -3 310 -16z"/>
<path d="M4250 7099 c-25 -4 -93 -12 -151 -18 -112 -10 -183 -33 -228 -74 -13
-12 -52 -65 -86 -117 -34 -52 -85 -116 -115 -143 -29 -26 -51 -49 -48 -52 2
-2 33 3 68 12 40 10 111 17 185 18 109 1 125 3 170 27 72 37 108 78 161 182
26 50 65 110 87 134 45 46 43 47 -43 31z m-175 -139 c11 -17 -15 -79 -42 -100
-49 -38 -128 -19 -121 31 5 42 144 100 163 69z"/>
<path d="M3370 6601 c-106 -24 -134 -43 -154 -107 l-7 -21 66 18 c64 17 114
49 164 103 28 30 30 30 -69 7z"/>
<path d="M4015 4170 c17 -11 35 -20 40 -20 6 0 -5 9 -23 20 -42 26 -56 26 -17
0z"/>
<path d="M4165 4104 c28 -13 82 -34 120 -46 39 -13 72 -25 75 -28 3 -3 19 -6
35 -7 17 -1 -15 13 -70 31 -55 18 -122 43 -148 55 -66 29 -74 25 -12 -5z"/>
<path d="M4462 3980 c0 -14 2 -19 5 -12 2 6 2 18 0 25 -3 6 -5 1 -5 -13z"/>
<path d="M4462 3930 c0 -14 2 -19 5 -12 2 6 2 18 0 25 -3 6 -5 1 -5 -13z"/>
<path d="M5655 4060 c-13 -5 -14 -9 -5 -9 8 0 24 4 35 9 13 5 14 9 5 9 -8 0
-24 -4 -35 -9z"/>
<path d="M4868 3943 c6 -2 18 -2 25 0 6 3 1 5 -13 5 -14 0 -19 -2 -12 -5z"/>
<path d="M2711 1555 c1 -19 18 -51 18 -35 0 8 -4 22 -9 30 -5 8 -9 11 -9 5z"/>
<path d="M3320 1535 c1 -26 2 -28 11 -12 8 14 8 22 0 30 -8 8 -11 3 -11 -18z"/>
<path d="M4510 1532 c0 -4 -8 -8 -17 -9 -10 0 -38 -5 -63 -11 l-45 -10 68 -1
c61 -1 67 1 67 19 0 11 -2 20 -5 20 -3 0 -5 -4 -5 -8z"/>
<path d="M6700 1525 c0 -17 -16 -20 -25 -5 -4 6 -22 8 -43 4 -67 -12 -58 -24
15 -23 64 1 70 3 66 20 -6 23 -13 25 -13 4z"/>
<path d="M7561 1514 c0 -11 3 -14 6 -6 3 7 2 16 -1 19 -3 4 -6 -2 -5 -13z"/>
<path d="M5460 2245 l0 -165 63 -2 c190 -7 279 5 323 44 83 73 85 156 7 230
-51 49 -89 58 -248 58 l-145 0 0 -165z"/>
<path d="M5876 1575 c24 -39 24 -40 24 -28 0 6 -9 21 -21 34 l-20 24 17 -30z"/>
<path d="M5972 1571 c-10 -6 -7 -10 12 -13 16 -3 25 -1 23 5 -5 15 -20 18 -35
8z"/>
<path d="M5292 1535 c0 -16 2 -22 5 -12 2 9 2 23 0 30 -3 6 -5 -1 -5 -18z"/>
<path d="M5907 1533 c-10 -9 -9 -23 1 -23 5 0 9 7 9 15 0 17 -1 18 -10 8z"/>
<path d="M5338 1513 c12 -2 32 -2 45 0 12 2 2 4 -23 4 -25 0 -35 -2 -22 -4z"/>
</g>
</svg>
